<mxfile host="65bd71144e">
    <diagram id="uQEvMJRflo7H4CRO1uya" name="Page-1">
        <mxGraphModel dx="1227" dy="460" grid="0" gridSize="10" guides="1" tooltips="1" connect="1" arrows="1" fold="1" page="1" pageScale="1" pageWidth="850" pageHeight="1100" math="0" shadow="0">
            <root>
                <mxCell id="0"/>
                <mxCell id="1" parent="0"/>
                <mxCell id="15" value="vprt" style="rounded=0;whiteSpace=wrap;html=1;" vertex="1" parent="1">
                    <mxGeometry x="166" y="150" width="80" height="40" as="geometry"/>
                </mxCell>
                <mxCell id="16" value="v1" style="rounded=0;whiteSpace=wrap;html=1;" vertex="1" parent="1">
                    <mxGeometry x="166" y="190" width="80" height="40" as="geometry"/>
                </mxCell>
                <mxCell id="17" value="v2" style="rounded=0;whiteSpace=wrap;html=1;" vertex="1" parent="1">
                    <mxGeometry x="166" y="230" width="80" height="40" as="geometry"/>
                </mxCell>
                <mxCell id="18" value="v3" style="rounded=0;whiteSpace=wrap;html=1;" vertex="1" parent="1">
                    <mxGeometry x="166" y="270" width="80" height="40" as="geometry"/>
                </mxCell>
                <mxCell id="19" value="base" style="text;html=1;strokeColor=none;fillColor=none;align=center;verticalAlign=middle;whiteSpace=wrap;rounded=0;" vertex="1" parent="1">
                    <mxGeometry x="186" y="117" width="40" height="20" as="geometry"/>
                </mxCell>
                <mxCell id="20" value="0x7fffffffd820" style="text;html=1;strokeColor=none;fillColor=none;align=center;verticalAlign=middle;whiteSpace=wrap;rounded=0;" vertex="1" parent="1">
                    <mxGeometry x="73" y="139" width="88" height="26" as="geometry"/>
                </mxCell>
                <mxCell id="21" value="" style="endArrow=classic;html=1;entryX=0;entryY=0.5;entryDx=0;entryDy=0;" edge="1" parent="1" source="15" target="22">
                    <mxGeometry width="50" height="50" relative="1" as="geometry">
                        <mxPoint x="257" y="143" as="sourcePoint"/>
                        <mxPoint x="292" y="170" as="targetPoint"/>
                    </mxGeometry>
                </mxCell>
                <mxCell id="22" value="deleter1" style="rounded=0;whiteSpace=wrap;html=1;" vertex="1" parent="1">
                    <mxGeometry x="317" y="165" width="73" height="35" as="geometry"/>
                </mxCell>
                <mxCell id="23" value="deleter2" style="rounded=0;whiteSpace=wrap;html=1;" vertex="1" parent="1">
                    <mxGeometry x="317" y="200" width="73" height="35" as="geometry"/>
                </mxCell>
                <mxCell id="24" value="print()const" style="rounded=0;whiteSpace=wrap;html=1;" vertex="1" parent="1">
                    <mxGeometry x="317" y="235" width="73" height="35" as="geometry"/>
                </mxCell>
                <mxCell id="25" value="0x555555557d58" style="text;html=1;strokeColor=none;fillColor=none;align=center;verticalAlign=middle;whiteSpace=wrap;rounded=0;" vertex="1" parent="1">
                    <mxGeometry x="246" y="150" width="88" height="26" as="geometry"/>
                </mxCell>
                <mxCell id="26" value="static_tmp" style="rounded=0;whiteSpace=wrap;html=1;" vertex="1" parent="1">
                    <mxGeometry x="167.5" y="336" width="77" height="33" as="geometry"/>
                </mxCell>
                <mxCell id="27" value="0x555555558154" style="text;whiteSpace=wrap;html=1;" vertex="1" parent="1">
                    <mxGeometry x="72.9991259765625" y="336.00249237060547" width="113" height="28" as="geometry"/>
                </mxCell>
                <mxCell id="28" value="static getVal()" style="rounded=0;whiteSpace=wrap;html=1;" vertex="1" parent="1">
                    <mxGeometry x="343" y="344" width="85" height="25" as="geometry"/>
                </mxCell>
                <mxCell id="29" value="0x555555555339" style="text;whiteSpace=wrap;html=1;" vertex="1" parent="1">
                    <mxGeometry x="267.9991259765625" y="319.00249237060547" width="113" height="28" as="geometry"/>
                </mxCell>
                <mxCell id="51" value="" style="group" vertex="1" connectable="0" parent="1">
                    <mxGeometry x="-464" y="518" width="80" height="196" as="geometry"/>
                </mxCell>
                <mxCell id="43" value="" style="rounded=0;whiteSpace=wrap;html=1;" vertex="1" parent="51">
                    <mxGeometry width="80" height="49" as="geometry"/>
                </mxCell>
                <mxCell id="44" value="" style="rounded=0;whiteSpace=wrap;html=1;" vertex="1" parent="51">
                    <mxGeometry width="80" height="49" as="geometry"/>
                </mxCell>
                <mxCell id="45" value="" style="rounded=0;whiteSpace=wrap;html=1;" vertex="1" parent="51">
                    <mxGeometry y="49" width="80" height="49" as="geometry"/>
                </mxCell>
                <mxCell id="48" value="" style="rounded=0;whiteSpace=wrap;html=1;" vertex="1" parent="51">
                    <mxGeometry y="98" width="80" height="49" as="geometry"/>
                </mxCell>
                <mxCell id="49" value="" style="rounded=0;whiteSpace=wrap;html=1;" vertex="1" parent="51">
                    <mxGeometry y="98" width="80" height="49" as="geometry"/>
                </mxCell>
                <mxCell id="50" value="" style="rounded=0;whiteSpace=wrap;html=1;" vertex="1" parent="51">
                    <mxGeometry y="147" width="80" height="49" as="geometry"/>
                </mxCell>
                <mxCell id="58" value="" style="group" vertex="1" connectable="0" parent="1">
                    <mxGeometry x="277" y="497" width="80" height="196" as="geometry"/>
                </mxCell>
                <mxCell id="59" value="" style="rounded=0;whiteSpace=wrap;html=1;" vertex="1" parent="58">
                    <mxGeometry width="80" height="49" as="geometry"/>
                </mxCell>
                <mxCell id="60" value="vtpr" style="rounded=0;whiteSpace=wrap;html=1;" vertex="1" parent="58">
                    <mxGeometry width="80" height="49" as="geometry"/>
                </mxCell>
                <mxCell id="61" value="v1" style="rounded=0;whiteSpace=wrap;html=1;" vertex="1" parent="58">
                    <mxGeometry y="49" width="80" height="49" as="geometry"/>
                </mxCell>
                <mxCell id="62" value="" style="rounded=0;whiteSpace=wrap;html=1;" vertex="1" parent="58">
                    <mxGeometry y="98" width="80" height="49" as="geometry"/>
                </mxCell>
                <mxCell id="63" value="v2" style="rounded=0;whiteSpace=wrap;html=1;" vertex="1" parent="58">
                    <mxGeometry y="98" width="80" height="49" as="geometry"/>
                </mxCell>
                <mxCell id="64" value="v3" style="rounded=0;whiteSpace=wrap;html=1;" vertex="1" parent="58">
                    <mxGeometry y="147" width="80" height="49" as="geometry"/>
                </mxCell>
                <mxCell id="66" value="Drived" style="text;html=1;strokeColor=none;fillColor=none;align=center;verticalAlign=middle;whiteSpace=wrap;rounded=0;" vertex="1" parent="1">
                    <mxGeometry x="297" y="470" width="40" height="20" as="geometry"/>
                </mxCell>
                <mxCell id="74" value="d.v4" style="rounded=0;whiteSpace=wrap;html=1;" vertex="1" parent="1">
                    <mxGeometry x="277" y="693" width="80" height="49" as="geometry"/>
                </mxCell>
                <mxCell id="80" value="" style="endArrow=classic;html=1;exitX=1;exitY=0.5;exitDx=0;exitDy=0;entryX=0;entryY=0.5;entryDx=0;entryDy=0;" edge="1" parent="1" source="60" target="76">
                    <mxGeometry width="50" height="50" relative="1" as="geometry">
                        <mxPoint x="361" y="677" as="sourcePoint"/>
                        <mxPoint x="411" y="627" as="targetPoint"/>
                    </mxGeometry>
                </mxCell>
                <mxCell id="81" value="" style="group" vertex="1" connectable="0" parent="1">
                    <mxGeometry x="418" y="523" width="124" height="142" as="geometry"/>
                </mxCell>
                <mxCell id="76" value="deleter1" style="rounded=0;whiteSpace=wrap;html=1;" vertex="1" parent="81">
                    <mxGeometry width="123.99999999999999" height="35.5" as="geometry"/>
                </mxCell>
                <mxCell id="77" value="deleter2" style="rounded=0;whiteSpace=wrap;html=1;" vertex="1" parent="81">
                    <mxGeometry y="35.5" width="123.99999999999999" height="35.5" as="geometry"/>
                </mxCell>
                <mxCell id="78" value="Base::print" style="rounded=0;whiteSpace=wrap;html=1;" vertex="1" parent="81">
                    <mxGeometry y="71" width="123.99999999999999" height="35.5" as="geometry"/>
                </mxCell>
                <mxCell id="79" value="Drived::virtualFunc()" style="rounded=0;whiteSpace=wrap;html=1;" vertex="1" parent="81">
                    <mxGeometry y="106.5" width="123.99999999999999" height="35.5" as="geometry"/>
                </mxCell>
                <mxCell id="91" value="0x555555558d10" style="text;whiteSpace=wrap;html=1;" vertex="1" parent="81">
                    <mxGeometry x="-74.00453430175781" y="-10.003110656738272" width="113" height="28" as="geometry"/>
                </mxCell>
                <mxCell id="82" value="" style="shape=curlyBracket;whiteSpace=wrap;html=1;rounded=1;size=0;" vertex="1" parent="1">
                    <mxGeometry x="246" y="556" width="20" height="120" as="geometry"/>
                </mxCell>
                <mxCell id="85" value="base objects" style="text;html=1;strokeColor=none;fillColor=none;align=center;verticalAlign=middle;whiteSpace=wrap;rounded=0;" vertex="1" parent="1">
                    <mxGeometry x="208" y="606" width="40" height="20" as="geometry"/>
                </mxCell>
                <mxCell id="86" value="Drived::drivedFunc()" style="rounded=0;whiteSpace=wrap;html=1;" vertex="1" parent="1">
                    <mxGeometry x="274.5" y="768" width="169.5" height="41" as="geometry"/>
                </mxCell>
                <mxCell id="87" value="0x55555555635a" style="text;html=1;strokeColor=none;fillColor=none;align=center;verticalAlign=middle;whiteSpace=wrap;rounded=0;" vertex="1" parent="1">
                    <mxGeometry x="226" y="768" width="40" height="20" as="geometry"/>
                </mxCell>
                <mxCell id="90" value="0x7fffffffd820" style="text;whiteSpace=wrap;html=1;" vertex="1" parent="1">
                    <mxGeometry x="201.99546569824219" y="492.0068893432617" width="88" height="28" as="geometry"/>
                </mxCell>
                <mxCell id="100" value="static_tmp" style="rounded=0;whiteSpace=wrap;html=1;" vertex="1" parent="1">
                    <mxGeometry x="370" y="701" width="77" height="33" as="geometry"/>
                </mxCell>
                <mxCell id="101" value="static getVal()" style="rounded=0;whiteSpace=wrap;html=1;" vertex="1" parent="1">
                    <mxGeometry x="457" y="701" width="85" height="25" as="geometry"/>
                </mxCell>
                <mxCell id="102" value="" style="group" vertex="1" connectable="0" parent="1">
                    <mxGeometry x="-511" y="1268" width="80" height="196" as="geometry"/>
                </mxCell>
                <mxCell id="103" value="" style="rounded=0;whiteSpace=wrap;html=1;" vertex="1" parent="102">
                    <mxGeometry width="80" height="49" as="geometry"/>
                </mxCell>
                <mxCell id="104" value="vtbl" style="rounded=0;whiteSpace=wrap;html=1;" vertex="1" parent="102">
                    <mxGeometry width="80" height="49" as="geometry"/>
                </mxCell>
                <mxCell id="117" value="v1" style="rounded=0;whiteSpace=wrap;html=1;" vertex="1" parent="102">
                    <mxGeometry y="46" width="80" height="49" as="geometry"/>
                </mxCell>
                <mxCell id="109" value="Drived" style="text;html=1;strokeColor=none;fillColor=none;align=center;verticalAlign=middle;whiteSpace=wrap;rounded=0;" vertex="1" parent="1">
                    <mxGeometry x="-499" y="1245" width="40" height="20" as="geometry"/>
                </mxCell>
                <mxCell id="110" value="" style="group" vertex="1" connectable="0" parent="1">
                    <mxGeometry x="-357" y="1245" width="80" height="196" as="geometry"/>
                </mxCell>
                <mxCell id="111" value="" style="rounded=0;whiteSpace=wrap;html=1;" vertex="1" parent="110">
                    <mxGeometry width="80" height="49" as="geometry"/>
                </mxCell>
                <mxCell id="112" value="deleter1" style="rounded=0;whiteSpace=wrap;html=1;" vertex="1" parent="110">
                    <mxGeometry width="80" height="49" as="geometry"/>
                </mxCell>
                <mxCell id="113" value="deleter2" style="rounded=0;whiteSpace=wrap;html=1;" vertex="1" parent="110">
                    <mxGeometry y="49" width="80" height="49" as="geometry"/>
                </mxCell>
                <mxCell id="114" value="" style="rounded=0;whiteSpace=wrap;html=1;" vertex="1" parent="110">
                    <mxGeometry y="98" width="80" height="49" as="geometry"/>
                </mxCell>
                <mxCell id="115" value="Drived::print()" style="rounded=0;whiteSpace=wrap;html=1;" vertex="1" parent="110">
                    <mxGeometry y="98" width="80" height="49" as="geometry"/>
                </mxCell>
                <mxCell id="118" value="Base* pb" style="text;html=1;strokeColor=none;fillColor=none;align=center;verticalAlign=middle;whiteSpace=wrap;rounded=0;" vertex="1" parent="1">
                    <mxGeometry x="-623" y="1221" width="40" height="20" as="geometry"/>
                </mxCell>
                <mxCell id="119" value="" style="endArrow=classic;html=1;exitX=0.75;exitY=1;exitDx=0;exitDy=0;entryX=0;entryY=0;entryDx=0;entryDy=0;" edge="1" parent="1" source="118" target="104">
                    <mxGeometry width="50" height="50" relative="1" as="geometry">
                        <mxPoint x="-495" y="1367" as="sourcePoint"/>
                        <mxPoint x="-445" y="1317" as="targetPoint"/>
                    </mxGeometry>
                </mxCell>
                <mxCell id="120" value="" style="endArrow=classic;html=1;entryX=0;entryY=0.5;entryDx=0;entryDy=0;exitX=1;exitY=0.5;exitDx=0;exitDy=0;" edge="1" parent="1" source="104" target="112">
                    <mxGeometry width="50" height="50" relative="1" as="geometry">
                        <mxPoint x="-495" y="1367" as="sourcePoint"/>
                        <mxPoint x="-445" y="1317" as="targetPoint"/>
                    </mxGeometry>
                </mxCell>
                <mxCell id="121" value="pb-&amp;gt;print()" style="text;html=1;strokeColor=none;fillColor=none;align=center;verticalAlign=middle;whiteSpace=wrap;rounded=0;" vertex="1" parent="1">
                    <mxGeometry x="-528" y="1407" width="134" height="19" as="geometry"/>
                </mxCell>
                <mxCell id="122" value="" style="endArrow=classic;html=1;entryX=0;entryY=0.5;entryDx=0;entryDy=0;exitX=0.75;exitY=0;exitDx=0;exitDy=0;" edge="1" parent="1" source="121" target="115">
                    <mxGeometry width="50" height="50" relative="1" as="geometry">
                        <mxPoint x="-495" y="1360" as="sourcePoint"/>
                        <mxPoint x="-445" y="1310" as="targetPoint"/>
                    </mxGeometry>
                </mxCell>
                <mxCell id="123" value="" style="endArrow=none;dashed=1;html=1;" edge="1" parent="1">
                    <mxGeometry width="50" height="50" relative="1" as="geometry">
                        <mxPoint x="-553" y="1313" as="sourcePoint"/>
                        <mxPoint x="-394" y="1313" as="targetPoint"/>
                    </mxGeometry>
                </mxCell>
                <mxCell id="124" value="slice" style="text;html=1;strokeColor=none;fillColor=none;align=center;verticalAlign=middle;whiteSpace=wrap;rounded=0;" vertex="1" parent="1">
                    <mxGeometry x="-553" y="1337" width="40" height="20" as="geometry"/>
                </mxCell>
                <mxCell id="125" value="" style="endArrow=none;dashed=1;html=1;" edge="1" parent="1">
                    <mxGeometry width="50" height="50" relative="1" as="geometry">
                        <mxPoint x="-550" y="1384" as="sourcePoint"/>
                        <mxPoint x="-550" y="1311" as="targetPoint"/>
                    </mxGeometry>
                </mxCell>
                <mxCell id="126" value="" style="endArrow=none;dashed=1;html=1;" edge="1" parent="1">
                    <mxGeometry width="50" height="50" relative="1" as="geometry">
                        <mxPoint x="-394" y="1382" as="sourcePoint"/>
                        <mxPoint x="-394" y="1309" as="targetPoint"/>
                    </mxGeometry>
                </mxCell>
                <mxCell id="127" value="" style="endArrow=none;dashed=1;html=1;" edge="1" parent="1">
                    <mxGeometry width="50" height="50" relative="1" as="geometry">
                        <mxPoint x="-550.5" y="1379" as="sourcePoint"/>
                        <mxPoint x="-391.5" y="1379" as="targetPoint"/>
                    </mxGeometry>
                </mxCell>
            </root>
        </mxGraphModel>
    </diagram>
</mxfile>